<?xml version="1.0" standalone="no"?>
<!DOCTYPE svg PUBLIC "-//W3C//DTD SVG 20010904//EN"
 "http://www.w3.org/TR/2001/REC-SVG-20010904/DTD/svg10.dtd">
<svg version="1.0" xmlns="http://www.w3.org/2000/svg"
 width="360.000000pt" height="360.000000pt" viewBox="0 0 360.000000 360.000000"
 preserveAspectRatio="xMidYMid meet">

<g transform="translate(0.000000,360.000000) scale(0.100000,-0.100000)"
fill="#000000" stroke="none">
<path d="M523 3578 c-23 -11 -71 -108 -80 -161 -2 -18 0 -57 7 -87 6 -30 17
-147 25 -260 7 -113 18 -230 24 -260 6 -30 25 -131 43 -225 17 -93 37 -177 44
-185 6 -8 9 -21 7 -27 -3 -7 8 -18 24 -25 15 -7 30 -16 33 -20 3 -4 12 -3 20
2 11 7 8 12 -18 23 -18 7 -29 16 -26 20 4 4 12 3 18 -2 17 -13 55 -20 61 -11
3 5 1 11 -5 15 -5 3 -10 17 -10 31 0 13 -3 23 -7 22 -10 -3 -87 75 -90 91 -2
6 2 11 7 11 6 0 10 -4 10 -10 0 -5 3 -9 8 -8 14 4 83 -35 93 -53 5 -11 17 -19
26 -19 14 0 15 -2 1 -17 -17 -20 -37 -54 -22 -38 35 38 57 67 47 61 -17 -9
-28 14 -12 25 11 6 6 15 -21 38 -28 24 -31 30 -16 31 12 0 16 5 12 16 -3 9 -6
18 -6 20 0 2 -7 4 -16 4 -9 0 -12 5 -8 13 4 6 -2 4 -14 -6 -16 -15 -25 -16
-39 -8 -17 10 -17 10 0 11 15 0 16 3 7 20 -6 11 -9 20 -8 21 7 1 105 9 125 9
15 0 20 5 17 14 -6 15 29 40 39 30 3 -3 4 2 3 12 -2 10 -8 20 -14 22 -26 8 -9
21 28 20 22 0 40 -4 40 -9 0 -14 26 -10 40 6 7 8 17 12 23 8 6 -3 7 -1 3 5
-11 18 5 14 28 -5 13 -11 16 -12 9 -3 -9 11 -8 19 2 33 7 10 16 14 19 9 10
-16 43 -20 43 -6 0 7 -3 12 -6 10 -3 -2 -16 0 -28 5 -28 10 -21 49 8 42 10 -3
19 -12 19 -19 0 -8 7 -14 15 -14 9 0 27 -7 40 -16 22 -14 25 -14 36 4 7 11 18
18 24 16 8 -3 11 6 9 28 -2 18 -1 25 2 16 6 -21 30 -24 38 -5 5 10 7 10 12 0
3 -7 14 -13 23 -13 10 0 21 -3 25 -7 11 -11 45 -13 51 -3 3 5 -16 18 -42 30
-53 23 -143 112 -201 198 -19 29 -37 50 -40 47 -7 -7 -32 15 -32 28 0 6 7 2
15 -9 8 -10 15 -15 15 -11 0 14 -50 95 -68 108 -14 11 -15 11 -4 -1 6 -8 12
-18 12 -24 0 -5 -6 -1 -14 9 -8 11 -12 25 -9 32 3 7 -12 33 -33 56 -22 24 -66
74 -99 112 -122 140 -151 168 -182 181 -38 16 -79 17 -110 2z m260 -537 c-2
-6 8 -11 22 -11 14 0 25 -4 25 -10 0 -13 -13 -13 -44 1 -30 14 -42 38 -18 34
9 -1 16 -8 15 -14z m80 -53 c6 -4 8 -10 4 -14 -3 -4 -14 -1 -22 6 -9 7 -15 9
-14 4 3 -18 -1 -25 -11 -19 -7 4 -4 17 7 36 15 25 19 27 22 12 2 -10 8 -21 14
-25z m48 -15 c12 -16 12 -17 -2 -6 -9 7 -19 10 -22 6 -4 -3 -7 -1 -7 5 0 17
16 15 31 -5z m-86 -73 c-3 -5 3 -10 14 -10 26 0 28 -17 4 -24 -10 -2 0 -2 22
1 22 3 48 10 57 14 10 6 19 5 23 -1 4 -6 10 -8 14 -6 4 3 12 -4 19 -14 7 -11
8 -21 2 -25 -5 -3 -14 4 -20 15 -12 22 -37 22 -32 0 5 -23 -21 -30 -43 -12
-16 14 -17 14 -7 1 15 -20 6 -31 -17 -19 -27 13 -76 32 -80 30 -5 -2 -21 22
-21 33 0 4 7 7 16 7 8 0 12 5 9 10 -4 6 5 10 20 10 15 0 24 -4 20 -10z m-85
-31 c0 -3 -11 -9 -25 -11 -19 -4 -23 -2 -15 7 11 13 40 16 40 4z m87 -75 c-3
-3 -12 -4 -19 -1 -8 3 -5 6 6 6 11 1 17 -2 13 -5z m100 -21 c-2 -2 -14 -5 -26
-8 -22 -4 -30 10 -8 18 13 4 40 -3 34 -10z m-240 -215 c-3 -8 -6 -5 -6 6 -1
11 2 17 5 13 3 -3 4 -12 1 -19z"/>
<path d="M3053 3271 c-65 -24 -75 -30 -68 -42 4 -5 -5 -13 -18 -18 -14 -6 -26
-13 -28 -18 -7 -14 -112 -98 -194 -154 -44 -29 -122 -95 -173 -146 -52 -51
-114 -108 -139 -125 -54 -40 -94 -41 -207 -10 -100 28 -204 30 -212 5 -3 -10
-8 -25 -11 -33 -15 -40 -4 -110 18 -110 4 0 11 -9 14 -20 7 -21 48 -70 59 -70
3 0 6 9 6 20 0 17 3 18 18 9 12 -8 17 -20 14 -35 -5 -28 12 -32 27 -6 9 15 10
13 11 -10 0 -14 -6 -28 -12 -31 -7 -2 -10 -8 -6 -12 5 -5 16 -1 26 8 10 10 22
14 26 10 4 -4 11 -1 16 7 5 8 13 11 17 6 4 -5 2 -11 -4 -13 -7 -3 -13 -14 -13
-24 0 -11 5 -17 10 -14 6 3 10 1 10 -4 0 -6 6 -11 14 -11 8 0 16 -7 20 -15 3
-9 12 -12 22 -8 12 4 15 3 10 -5 -4 -7 -3 -12 3 -12 6 0 15 -10 22 -21 7 -13
7 -19 1 -15 -18 11 -25 -15 -11 -40 7 -14 21 -24 35 -24 19 0 44 -34 32 -44
-1 -2 -47 -13 -101 -25 -54 -11 -109 -29 -123 -38 -22 -14 -27 -14 -36 -2 -7
10 -8 8 -5 -9 4 -16 2 -22 -7 -19 -15 6 -93 -117 -102 -161 -4 -18 -11 -29
-16 -26 -6 4 -9 -13 -7 -45 2 -28 1 -51 -3 -51 -4 0 -5 -7 -2 -15 4 -8 10 -12
15 -9 5 3 9 0 9 -6 0 -11 48 -60 58 -60 3 0 14 8 25 17 11 10 17 13 14 7 -5
-8 4 -12 27 -12 19 0 39 -3 44 -6 5 -3 53 -9 105 -12 107 -7 176 8 233 51 17
13 34 22 37 19 2 -3 3 -27 1 -55 -3 -41 -1 -51 14 -55 32 -10 47 -21 47 -35 0
-19 50 -49 80 -49 16 0 25 -6 25 -15 0 -21 24 -19 45 5 25 28 59 22 63 -10 2
-14 8 -29 13 -34 5 -6 9 -18 9 -27 0 -9 7 -19 15 -23 8 -3 15 -14 15 -25 0
-10 7 -22 16 -25 8 -3 12 -11 8 -17 -4 -8 -3 -9 4 -5 6 3 16 -3 22 -14 15 -28
42 -55 64 -63 9 -4 14 -11 11 -17 -3 -6 1 -13 9 -16 9 -3 13 -11 10 -16 -4 -6
5 -8 22 -6 54 6 97 103 94 209 -1 60 -51 259 -73 293 -9 14 -17 41 -17 59 0
19 -7 40 -15 47 -26 21 -17 54 29 107 47 56 50 67 62 231 4 51 11 95 15 98 5
3 9 13 9 22 0 9 21 62 46 117 25 55 52 127 60 160 18 73 38 287 39 410 0 82
-3 95 -30 142 l-30 53 -65 0 c-37 -1 -87 -9 -117 -19z m125 2 c-10 -2 -28 -2
-40 0 -13 2 -5 4 17 4 22 1 32 -1 23 -4z m86 -335 c-4 -13 -7 -29 -6 -35 2 -8
-3 -10 -13 -7 -16 7 -21 24 -6 24 5 0 12 12 15 26 4 15 9 24 12 21 3 -3 2 -16
-2 -29z m-365 -37 c8 -5 9 -11 3 -15 -6 -3 -13 -2 -17 4 -4 6 -11 8 -16 5 -5
-4 -9 -1 -9 4 0 13 20 14 39 2z m349 -88 c3 -56 -18 -151 -34 -157 -10 -4 -14
2 -14 18 0 14 5 26 11 28 6 2 12 26 14 54 2 46 12 94 19 94 2 0 3 -17 4 -37z
m-318 21 c0 -8 -19 -13 -24 -6 -3 5 1 9 9 9 8 0 15 -2 15 -3z m-90 -29 c0 -8
-4 -15 -9 -15 -5 0 -11 7 -15 15 -3 9 0 15 9 15 8 0 15 -7 15 -15z m70 -2 c27
-19 27 -19 53 4 16 15 17 14 17 -8 0 -19 -2 -21 -10 -9 -9 14 -15 7 -11 -14 1
-5 -5 -4 -13 4 -9 7 -16 9 -16 5 0 -4 -7 -2 -15 5 -8 6 -19 9 -24 6 -5 -4 -12
-2 -16 4 -4 6 -11 8 -16 5 -5 -4 -9 -1 -9 4 0 17 33 13 60 -6z m-45 -54 c6 -4
17 -5 26 -4 9 2 16 -2 16 -9 0 -15 -89 -14 -95 2 -2 8 2 10 14 5 11 -4 15 -3
11 4 -7 11 10 12 28 2z m-33 -84 c10 2 16 -2 15 -8 -1 -7 11 -13 27 -15 17 -2
26 0 22 7 -4 5 8 2 26 -7 l33 -17 -39 -3 c-22 -2 -60 5 -85 14 -25 10 -50 17
-55 16 -5 -2 -4 4 4 13 8 9 17 12 24 6 6 -4 19 -7 28 -6z m386 -39 c-7 -8 -15
-12 -17 -11 -5 6 10 25 20 25 5 0 4 -6 -3 -14z m-86 -15 c12 -1 15 -6 11 -18
-5 -15 -3 -16 8 -5 7 6 24 12 37 12 27 0 25 -15 -11 -85 -26 -49 -67 -147 -67
-158 0 -12 -40 -62 -48 -61 -4 1 -13 -7 -20 -18 -7 -10 -18 -15 -24 -12 -8 5
-9 1 -4 -12 4 -10 4 -15 0 -11 -4 4 -14 1 -22 -6 -11 -8 -14 -9 -9 0 7 12 5
13 -59 15 -17 0 -31 6 -31 13 0 8 13 12 36 10 22 -2 35 -8 33 -15 -1 -6 2 -9
7 -5 6 3 7 13 4 21 -5 13 -1 15 15 10 17 -6 19 -3 15 14 -3 11 0 20 6 20 5 0
8 -8 5 -17 -5 -17 -5 -17 9 -1 8 10 18 14 23 10 4 -4 2 1 -5 11 -11 14 -11 17
-1 17 8 0 10 3 6 8 -4 4 -12 7 -17 7 -5 0 -9 5 -9 10 0 10 4 11 35 14 8 0 15
6 15 12 0 5 -5 7 -12 3 -7 -4 -2 7 11 24 12 18 27 30 32 27 5 -4 9 -2 9 3 0
17 -28 21 -34 6 -3 -9 -9 -13 -13 -11 -5 3 -17 1 -28 -4 -16 -6 -17 -8 -3 -8
9 -1 20 -7 24 -13 4 -7 3 -10 -1 -5 -5 4 -17 -1 -27 -10 -13 -12 -18 -13 -16
-4 2 7 -3 16 -11 19 -8 3 -11 0 -7 -7 4 -6 2 -11 -4 -11 -27 0 -19 31 19 69
36 36 46 57 42 84 -1 6 14 11 31 8 3 0 4 13 2 28 -4 24 -2 29 13 26 10 -2 26
-4 35 -4z m-168 -207 c3 -8 2 -12 -4 -9 -6 3 -10 10 -10 16 0 14 7 11 14 -7z
m141 -196 c0 -13 -3 -28 -8 -35 -4 -6 -5 -17 -2 -25 7 -17 -50 -104 -81 -125
-17 -10 -32 -13 -51 -7 -16 4 -32 8 -38 8 -12 1 -24 62 -17 89 5 21 12 31 40
62 15 17 16 28 0 19 -7 -5 -8 -3 -3 6 6 10 11 9 22 -5 12 -17 18 -11 15 16 -1
3 6 6 13 6 10 0 12 -4 5 -12 -8 -9 -6 -14 5 -19 11 -4 14 -2 9 7 -5 8 -2 7 9
-2 16 -12 22 -8 18 12 -1 5 3 6 9 2 6 -3 7 -12 3 -18 -4 -8 -1 -7 9 1 14 11
16 11 14 -2 -1 -9 -5 -19 -9 -22 -4 -4 -7 -16 -7 -28 0 -35 23 -1 26 38 3 48
20 78 19 34z m-795 -208 c0 -5 -4 -10 -10 -10 -5 0 -10 5 -10 10 0 6 5 10 10
10 6 0 10 -4 10 -10z m-139 -73 c-1 -12 -15 -9 -19 4 -3 6 1 10 8 8 6 -3 11
-8 11 -12z"/>
<path d="M3040 2366 c0 -2 7 -7 16 -10 8 -3 12 -2 9 4 -6 10 -25 14 -25 6z"/>
<path d="M2986 2267 c3 -10 9 -15 12 -12 3 3 0 11 -7 18 -10 9 -11 8 -5 -6z"/>
<path d="M1340 2805 c7 -8 16 -15 21 -15 5 0 9 7 9 15 0 9 -9 15 -21 15 -18 0
-19 -2 -9 -15z"/>
<path d="M1540 2784 c0 -8 5 -12 10 -9 6 3 10 10 10 16 0 5 -4 9 -10 9 -5 0
-10 -7 -10 -16z"/>
<path d="M1970 2759 c0 -5 5 -7 10 -4 6 3 10 8 10 11 0 2 -4 4 -10 4 -5 0 -10
-5 -10 -11z"/>
<path d="M1850 2740 c0 -5 6 -10 14 -10 8 0 18 5 21 10 3 6 -3 10 -14 10 -12
0 -21 -4 -21 -10z"/>
<path d="M1230 2664 c0 -20 -4 -25 -16 -20 -10 4 -14 1 -12 -6 3 -7 12 -14 21
-16 13 -3 17 4 17 32 0 20 -2 36 -5 36 -3 0 -5 -12 -5 -26z"/>
<path d="M1305 2670 c-3 -5 -1 -10 4 -10 6 0 11 5 11 10 0 6 -2 10 -4 10 -3 0
-8 -4 -11 -10z"/>
<path d="M1161 2638 c-1 -32 8 -58 21 -58 7 0 7 4 0 13 -6 6 -12 26 -15 42 -4
29 -4 29 -6 3z"/>
<path d="M1300 2634 c0 -8 5 -12 10 -9 6 4 8 11 5 16 -9 14 -15 11 -15 -7z"/>
<path d="M1087 2610 c-19 -23 -20 -81 -1 -73 8 3 11 -2 7 -15 -3 -14 2 -21 18
-25 26 -7 40 0 23 11 -18 11 -27 52 -12 52 9 0 10 2 1 8 -6 4 -13 20 -15 35
-3 28 -3 28 -21 7z"/>
<path d="M737 2583 c-3 -5 -2 -15 2 -22 7 -10 10 -10 16 -1 4 6 3 16 -3 22 -5
5 -12 6 -15 1z"/>
<path d="M949 2558 c-11 -8 -10 -9 4 -4 12 4 17 0 17 -14 0 -11 5 -20 10 -20
15 0 12 37 -3 43 -8 3 -20 1 -28 -5z"/>
<path d="M757 2543 c-14 -13 -6 -24 13 -18 13 4 20 2 20 -8 0 -7 11 -20 25
-27 26 -14 36 -46 11 -37 -8 3 -24 -7 -36 -23 -13 -16 -26 -27 -30 -25 -4 3
-10 -5 -14 -17 -3 -14 0 -26 9 -31 8 -4 15 -13 15 -19 0 -6 9 -19 21 -29 26
-22 17 -44 -12 -29 -15 8 -19 7 -19 -4 0 -7 -8 -17 -17 -20 -20 -8 -7 -25 24
-30 34 -7 63 -30 63 -49 0 -11 5 -15 11 -11 8 5 8 1 0 -14 -28 -52 3 -153 58
-190 53 -36 133 -56 223 -57 47 0 84 -3 82 -6 -2 -4 8 -10 23 -14 20 -5 36 1
67 23 l41 30 -3 118 c-1 65 -6 121 -10 124 -9 7 -42 61 -48 80 -3 8 -17 23
-32 32 -15 10 -34 22 -42 27 -54 37 -160 63 -160 40 0 -4 -15 -3 -32 2 -44 12
-48 11 -18 -6 23 -13 23 -14 5 -16 -11 -1 -26 -1 -32 0 -7 1 -13 -3 -13 -9 0
-5 -9 -10 -21 -10 -26 0 -20 23 9 30 16 4 19 9 12 20 -16 25 -11 33 14 26 14
-3 26 -1 28 5 3 9 9 9 25 0 12 -6 27 -11 33 -11 19 0 2 17 -35 34 -19 9 -35
21 -35 27 0 5 13 3 29 -6 19 -9 32 -11 36 -5 3 6 -1 10 -9 10 -16 0 -21 12 -9
23 3 4 13 1 21 -6 13 -9 14 -9 8 1 -4 6 -3 12 3 12 5 0 12 -6 14 -12 4 -9 6
-8 6 2 1 19 -26 60 -40 60 -5 0 -9 -8 -10 -17 0 -14 -2 -13 -9 5 -5 12 -12 22
-14 22 -3 0 -3 -7 0 -15 4 -9 0 -15 -10 -15 -9 0 -16 -5 -16 -11 0 -8 -5 -7
-15 1 -13 11 -18 11 -28 0 -10 -10 -9 -11 3 -5 12 7 13 6 2 -6 -8 -9 -15 -10
-20 -4 -8 11 -32 18 -32 9 0 -3 5 -14 10 -25 24 -44 -43 4 -73 54 -17 26 -54
37 -70 20z m253 -57 c0 -3 -4 -8 -10 -11 -5 -3 -10 -1 -10 4 0 6 5 11 10 11 6
0 10 -2 10 -4z m-166 -61 c-23 -17 -34 -19 -34 -5 0 6 6 10 14 10 8 0 17 8 21
18 5 12 9 13 12 4 3 -7 -3 -20 -13 -27z m-25 -53 c-5 -2 -9 -10 -9 -18 0 -16
-16 -19 -25 -5 -3 6 3 14 12 20 10 6 13 11 6 11 -6 0 -15 -4 -18 -10 -3 -5
-10 -10 -16 -10 -15 0 -10 22 8 36 15 10 21 9 34 -4 9 -10 12 -18 8 -20z m21
-32 c0 -5 -2 -10 -4 -10 -3 0 -8 5 -11 10 -3 6 -1 10 4 10 6 0 11 -4 11 -10z
m190 -280 c0 -5 -4 -10 -10 -10 -5 0 -10 5 -10 10 0 6 5 10 10 10 6 0 10 -4
10 -10z"/>
<path d="M1130 2541 c0 -6 5 -13 10 -16 6 -3 10 1 10 9 0 9 -4 16 -10 16 -5 0
-10 -4 -10 -9z"/>
<path d="M770 2470 c0 -5 5 -10 10 -10 6 0 10 5 10 10 0 6 -4 10 -10 10 -5 0
-10 -4 -10 -10z"/>
<path d="M316 1624 c4 -87 6 -170 4 -184 -8 -83 1 -285 14 -338 9 -33 16 -75
16 -93 0 -67 68 -237 139 -346 25 -39 56 -87 67 -105 12 -18 44 -69 70 -113
44 -73 113 -152 173 -198 44 -35 226 -125 301 -150 71 -23 95 -29 215 -57 85
-20 275 -40 384 -40 167 0 340 25 499 71 60 18 128 48 75 34 -12 -3 -24 -1
-28 5 -3 5 -1 10 6 10 8 0 8 4 -1 15 -7 8 -23 15 -35 15 -17 0 -25 8 -30 27
-4 17 -2 29 4 31 21 7 11 17 -19 18 -22 1 -30 -4 -32 -19 -3 -20 -3 -20 -18
-2 -8 10 -10 16 -4 12 6 -3 11 0 11 7 0 8 -6 12 -13 9 -19 -7 -27 16 -11 32 8
8 16 12 19 10 2 -2 4 5 5 15 1 11 -3 20 -8 20 -6 0 -3 7 6 16 9 9 14 23 11 30
-3 8 0 11 10 7 11 -4 12 -9 4 -18 -8 -9 -8 -15 0 -20 12 -8 11 -10 14 49 2 28
8 52 15 54 17 6 42 33 37 41 -3 4 6 7 19 7 29 0 23 -11 -19 -38 -17 -11 -23
-18 -14 -14 13 4 17 0 15 -14 -1 -10 3 -18 8 -17 6 1 10 9 10 17 1 8 7 14 14
12 7 -1 10 2 7 7 -4 5 0 12 6 14 10 4 9 6 -1 6 -11 1 -10 6 4 21 20 22 51 28
39 8 -5 -9 -2 -8 9 1 14 11 15 16 5 29 -9 11 -9 14 -1 9 6 -4 14 -3 18 3 3 5
1 10 -4 10 -6 0 -11 5 -11 11 0 5 6 7 13 3 8 -5 8 -2 -2 9 -15 19 -26 23 -15
5 4 -7 3 -8 -4 -4 -7 4 -12 11 -12 16 0 13 52 38 68 33 6 -3 12 1 12 7 0 10 3
10 14 0 8 -6 13 -19 10 -28 -2 -9 2 -3 10 13 8 17 15 36 16 43 0 7 7 20 16 29
8 9 13 22 10 30 -3 8 -1 11 5 8 5 -4 7 -15 4 -25 -3 -10 0 -22 6 -26 8 -4 9
-3 5 4 -4 7 -2 12 5 12 7 0 9 -8 6 -21 -4 -15 -3 -19 4 -12 6 6 11 19 12 30 1
24 38 26 44 3 4 -13 3 -13 -6 0 -8 12 -13 12 -23 2 -9 -9 -9 -15 1 -24 10 -11
11 -9 5 7 -7 18 -6 18 9 6 14 -11 18 -11 23 3 3 9 11 13 16 9 7 -4 9 4 6 20
-3 15 -2 24 3 21 13 -8 6 32 -8 45 -8 8 -13 8 -13 1 0 -7 -5 -6 -14 2 -19 18
-11 26 19 21 15 -3 22 -10 18 -17 -4 -6 1 -5 10 3 9 7 17 10 17 7 0 -4 7 0 16
8 8 9 20 14 25 11 19 -12 8 14 -11 28 -18 12 -18 15 -5 20 9 4 15 1 15 -9 0
-13 40 -37 48 -29 3 3 6 17 11 44 1 3 7 -2 14 -10 6 -8 11 -12 10 -10 -2 2 1
9 7 16 13 16 0 57 -16 51 -20 -8 -17 12 7 45 25 36 19 72 -16 95 -14 9 -25 23
-25 31 0 8 -4 11 -10 8 -5 -3 -10 3 -10 14 0 12 -4 21 -9 21 -19 0 -16 45 3
55 26 14 47 82 40 130 -3 22 -7 48 -8 58 -4 30 -108 117 -140 117 -19 0 -20
-13 -4 -43 6 -12 12 -54 14 -94 l2 -72 -36 23 c-41 26 -98 43 -87 26 3 -5 13
-10 21 -10 13 0 19 -13 14 -35 -1 -5 1 -7 5 -3 7 7 45 -27 45 -41 0 -5 -7 -12
-16 -15 -22 -9 -24 -8 -18 8 3 8 -4 16 -18 19 -13 4 -24 5 -24 4 -1 -1 -10 5
-20 14 -11 9 -35 20 -54 25 -19 4 -42 9 -50 11 -8 3 -32 4 -52 3 -21 0 -47 4
-58 10 -14 7 -20 7 -20 0 0 -14 -37 -13 -46 2 -4 6 -3 8 4 4 6 -3 13 -2 16 3
7 11 -8 9 -44 -6 -81 -33 -116 -39 -145 -26 -38 15 -68 18 -45 3 11 -7 4 -8
-23 -6 -45 5 -62 16 -24 16 17 0 27 5 27 15 0 8 -3 15 -7 16 -39 4 -71 11 -88
18 -11 5 -28 12 -38 15 -10 3 -17 12 -15 20 2 8 -1 14 -7 13 -5 -1 -9 -6 -7
-11 2 -5 -5 -3 -14 5 -16 13 -16 12 -5 -9 12 -22 11 -22 -9 -10 -20 13 -20 13
-2 28 10 9 21 22 25 30 4 12 6 12 6 1 1 -20 31 7 31 29 0 18 13 26 97 60 63
27 87 51 78 79 -5 16 -12 20 -29 15 -17 -4 -25 1 -36 20 -7 14 -21 26 -31 26
-11 0 -19 9 -21 23 -2 13 -9 21 -18 18 -8 -2 -21 -4 -27 -4 -9 0 -10 -4 -3
-12 8 -9 6 -14 -5 -19 -8 -3 -15 -16 -15 -30 0 -21 -8 -29 -38 -38 -19 -6 -44
-39 -46 -61 0 -15 -6 -23 -13 -20 -7 3 -12 8 -11 11 4 31 -4 48 -22 48 -11 0
-18 -5 -16 -11 2 -5 8 -9 13 -8 5 1 10 -5 10 -12 0 -10 -4 -12 -12 -5 -7 5
-16 6 -20 2 -5 -4 -5 -2 -2 4 8 13 -21 56 -33 49 -4 -3 -6 -14 -3 -24 3 -10 0
-21 -5 -25 -5 -3 -9 2 -8 12 1 12 -5 16 -19 14 -20 -3 -20 -2 -1 13 11 8 15
15 10 15 -6 0 -14 -3 -18 -7 -4 -5 -13 -8 -19 -8 -7 0 -13 -11 -14 -25 -2 -25
-2 -25 5 -2 l7 24 20 -21 c18 -21 18 -21 0 -15 -14 6 -16 4 -10 -6 5 -8 4 -11
-3 -6 -5 3 -12 1 -14 -6 -3 -7 -11 7 -19 31 -10 33 -23 49 -49 62 -19 11 -28
19 -20 19 11 0 16 10 15 34 0 25 -4 32 -14 28 -10 -4 -12 -1 -6 9 8 12 6 12
-8 0 -10 -8 -20 -11 -24 -8 -3 4 -12 2 -20 -4 -7 -6 -13 -8 -13 -4 0 4 -11 0
-25 -9 -15 -10 -34 -14 -50 -10 -20 5 -25 2 -31 -19 -6 -28 2 -51 16 -42 4 3
10 -4 13 -14 2 -10 17 -21 32 -25 38 -10 96 -74 102 -113 4 -21 1 -33 -6 -34
-38 -4 -49 -6 -73 -13 -16 -5 -28 -12 -28 -18 0 -5 6 -6 13 -2 8 5 8 3 -2 -9
-7 -9 -17 -15 -21 -12 -5 3 -11 2 -14 -3 -7 -12 -93 -7 -121 8 -19 10 -22 16
-13 30 19 30 4 47 -39 43 -66 -5 -76 -4 -87 8 -8 9 -8 10 1 5 9 -5 11 -2 7 9
-4 9 -9 14 -11 11 -3 -3 -12 1 -20 9 -21 21 -31 18 -29 -7 1 -13 7 -22 13 -21
6 1 19 -8 29 -20 14 -16 15 -18 2 -9 -12 10 -18 10 -24 1 -5 -9 -11 -7 -21 6
-7 11 -13 15 -13 11 0 -5 -7 -3 -15 4 -8 7 -15 10 -15 6 0 -4 -10 0 -22 8 -13
7 -31 12 -40 11 -10 -2 -18 1 -18 7 0 6 -7 4 -17 -3 -15 -13 -15 -12 -2 9 8
12 17 22 22 22 4 0 5 -6 1 -12 -5 -9 -3 -9 9 1 23 19 11 34 -16 19 -12 -7 -26
-11 -30 -10 -5 1 -5 -3 -1 -10 6 -10 4 -10 -7 -2 -19 14 -44 12 -45 -3 -1 -7
-2 -21 -3 -30 -1 -15 -3 -15 -17 3 -8 10 -12 12 -8 4 7 -13 6 -13 -11 0 -14
11 -19 12 -22 2 -6 -15 -23 -6 -23 13 0 10 9 13 29 10 19 -2 31 2 35 11 3 9 1
12 -4 9 -6 -3 -10 -1 -10 5 0 6 -5 8 -12 4 -16 -10 -58 -14 -58 -4 0 15 -40 5
-55 -15 -16 -20 -16 -19 -5 3 6 13 7 22 1 22 -5 0 -12 -5 -14 -10 -3 -6 -4 -5
-3 2 2 7 9 14 17 14 8 1 19 2 26 3 7 1 10 8 6 18 -5 11 -3 14 6 8 10 -6 11 -3
2 12 -6 11 -8 23 -5 25 2 3 -2 11 -11 18 -12 10 -15 9 -15 -5 0 -26 -8 -15
-14 19 -7 37 -9 39 -24 16 -9 -16 -9 -19 0 -18 6 2 13 -6 15 -17 1 -11 0 -14
-3 -7 -5 10 -11 9 -27 -5 -11 -10 -17 -13 -14 -7 4 7 0 14 -7 17 -10 4 -13 0
-11 -14 2 -10 0 -19 -6 -19 -5 0 -9 6 -9 13 -1 6 -8 -1 -16 -16 -8 -16 -20
-25 -26 -21 -7 5 -8 2 -3 -6 6 -10 12 -8 25 8 17 20 18 20 23 3 4 -17 -3 -21
-46 -22 -11 0 -15 -5 -10 -12 4 -8 1 -8 -9 1 -11 9 -18 10 -23 2 -3 -6 -11 -7
-17 -4 -7 4 -8 2 -4 -5 6 -9 11 -9 22 0 10 8 14 8 14 0 0 -6 -5 -11 -11 -11
-8 0 -7 -6 2 -17 7 -10 0 -6 -16 8 -17 15 -38 25 -47 24 -14 -3 -18 4 -18 28
0 29 1 30 14 12 8 -11 12 -24 9 -29 -4 -5 -1 -6 6 -2 7 5 10 14 7 21 -3 9 2
12 15 10 11 -2 17 0 14 6 -4 5 -11 7 -16 4 -5 -4 -9 -1 -9 5 0 6 -4 8 -10 5
-5 -3 -10 -1 -10 5 0 6 -5 8 -12 4 -9 -5 -9 -2 1 9 15 19 26 23 15 5 -4 -6 -3
-8 3 -5 6 4 13 17 15 30 4 19 1 24 -16 23 -14 -1 -20 -8 -19 -20 1 -13 -2 -15
-10 -7 -13 13 -18 103 -7 111 4 3 -1 14 -12 24 -18 19 -18 16 -12 -140z m1095
41 c5 4 6 11 3 17 -4 7 -2 8 5 4 6 -4 9 -11 6 -16 -3 -4 -2 -10 2 -13 5 -2 2
-2 -4 -1 -8 2 -13 -6 -13 -18 0 -21 0 -21 -21 -2 -11 10 -16 20 -10 22 5 2 8
11 5 20 -5 15 -4 15 6 -1 6 -9 16 -15 21 -12z m429 -20 c0 -38 -15 -37 -17 1
-1 19 3 32 8 29 5 -4 9 -17 9 -30z m-232 -90 c-3 -3 -9 2 -12 12 -6 14 -5 15
5 6 7 -7 10 -15 7 -18z m-1187 -82 c13 -16 12 -17 -3 -4 -10 7 -18 15 -18 17
0 8 8 3 21 -13z m709 -77 c-13 -13 -35 7 -25 24 5 8 11 8 21 -1 10 -8 12 -15
4 -23z m-617 -6 c-3 -12 -8 -19 -11 -16 -5 6 5 36 12 36 2 0 2 -9 -1 -20z
m847 -35 c0 -2 -9 -3 -19 -2 -11 0 -18 5 -15 9 4 6 34 0 34 -7z m400 -21 c0
-8 -19 -13 -24 -6 -3 5 1 9 9 9 8 0 15 -2 15 -3z m834 -45 c-3 -5 -10 -7 -15
-3 -5 3 -7 10 -3 15 3 5 10 7 15 3 5 -3 7 -10 3 -15z m29 -65 c11 -11 -3 -24
-18 -18 -8 4 -12 10 -9 15 6 11 18 12 27 3z m-363 -694 c3 -1 9 -2 13 -1 5 1
6 -3 3 -8 -4 -5 2 -11 11 -13 13 -3 10 -6 -9 -10 -21 -4 -31 0 -42 17 -14 21
-14 23 2 20 9 -2 19 -4 22 -5z m-185 -353 c1 -7 6 -11 13 -10 6 2 9 -4 6 -11
-3 -8 -12 -12 -20 -9 -8 3 -21 -2 -28 -12 -10 -13 -15 -15 -20 -6 -5 7 -5 15
-2 18 3 4 6 1 6 -5 0 -7 8 -5 18 6 23 21 17 38 -6 20 -14 -11 -14 -9 1 8 9 11
15 23 14 26 -2 3 1 1 7 -4 6 -5 11 -14 11 -21z m171 -84 c0 -1 -24 -3 -52 -6
-38 -3 -51 -1 -51 9 0 10 4 11 14 3 10 -9 13 -8 14 2 0 10 2 11 6 2 4 -10 9
-10 25 1 16 11 23 12 33 3 7 -7 12 -13 11 -14z"/>
<path d="M2246 517 c3 -10 9 -15 12 -12 3 3 0 11 -7 18 -10 9 -11 8 -5 -6z"/>
<path d="M637 1673 c-16 -16 -19 -16 -27 -3 -8 11 -9 9 -8 -12 2 -21 5 -25 16
-16 7 6 12 7 11 2 -4 -21 2 -26 18 -13 9 8 19 14 22 14 3 0 5 6 3 13 -2 8 1
11 7 7 6 -3 11 1 11 9 0 21 -32 20 -53 -1z"/>
<path d="M1465 1620 c4 -6 11 -8 16 -5 5 4 9 -1 9 -9 0 -10 6 -13 15 -10 14 6
13 8 -2 20 -21 16 -47 18 -38 4z"/>
<path d="M1720 1608 c-14 -6 -20 -12 -14 -14 15 -6 60 11 48 18 -5 3 -20 1
-34 -4z"/>
<path d="M475 1589 c-4 -6 -5 -12 -2 -15 2 -3 7 2 10 11 7 17 1 20 -8 4z"/>
<path d="M1650 1581 c0 -10 26 -9 36 2 4 4 -2 7 -14 7 -12 0 -22 -4 -22 -9z"/>
<path d="M1185 1422 c-11 -11 -5 -43 7 -36 6 4 17 -1 25 -11 7 -11 13 -14 13
-8 0 7 -4 15 -10 18 -5 3 -10 11 -10 17 0 6 9 -1 20 -15 17 -21 35 -26 60 -17
3 1 8 2 12 1 4 0 5 6 2 14 -4 8 -10 12 -15 9 -5 -3 -9 -1 -9 3 0 10 -88 32
-95 25z"/>
<path d="M2199 1374 c-1 -5 -1 -12 0 -16 0 -5 -2 -7 -6 -7 -20 3 -23 -2 -8
-17 17 -17 65 -12 65 7 0 6 -6 7 -12 3 -9 -5 -9 -2 1 9 8 10 9 17 3 17 -6 0
-17 3 -26 6 -9 3 -17 2 -17 -2z"/>
<path d="M2012 1323 c2 -11 13 -19 28 -21 18 -2 21 0 12 6 -8 5 -13 13 -12 18
0 5 -6 11 -15 12 -12 3 -16 -2 -13 -15z"/>
<path d="M3015 1320 c3 -5 14 -10 23 -10 15 0 15 2 2 10 -20 13 -33 13 -25 0z"/>
<path d="M2717 1246 c-3 -8 -2 -18 3 -21 13 -8 24 15 12 27 -6 6 -11 4 -15 -6z"/>
<path d="M2631 776 c-6 -8 -11 -18 -10 -22 3 -21 -2 -28 -11 -14 -8 12 -10 10
-10 -8 0 -13 4 -20 10 -17 6 4 10 -5 10 -21 0 -37 9 -26 12 14 1 21 7 31 16
29 19 -3 24 29 7 43 -9 7 -16 6 -24 -4z m25 -22 c2 -12 -1 -13 -12 -3 -7 6
-11 16 -8 21 7 11 17 3 20 -18z"/>
<path d="M2444 174 c-18 -14 -18 -15 4 -4 12 6 22 13 22 15 0 8 -5 6 -26 -11z"/>
<path d="M2380 145 c-14 -8 -20 -14 -15 -14 6 0 21 6 35 14 14 8 21 14 15 14
-5 0 -21 -6 -35 -14z"/>
<path d="M2314 114 c-18 -14 -18 -14 6 -3 31 14 36 19 24 19 -6 0 -19 -7 -30
-16z"/>
</g>
</svg>
