<?xml version="1.0" standalone="no"?>
<!DOCTYPE svg PUBLIC "-//W3C//DTD SVG 20010904//EN"
 "http://www.w3.org/TR/2001/REC-SVG-20010904/DTD/svg10.dtd">
<svg version="1.0" xmlns="http://www.w3.org/2000/svg"
 width="236.000000pt" height="184.000000pt" viewBox="0 0 236.000000 184.000000"
 preserveAspectRatio="xMidYMid meet">
<metadata>
Created by potrace 1.16, written by Peter Selinger 2001-2019
</metadata>
<g transform="translate(0.000000,184.000000) scale(0.100000,-0.100000)"
fill="#000000" stroke="none">
<path d="M146 1809 c-3 -18 -1 -38 5 -45 9 -11 8 -14 -4 -14 -8 0 -21 -10 -29
-21 -13 -20 -15 -20 -30 -5 -32 32 -96 7 -83 -33 3 -12 10 -21 15 -21 5 0 11
-8 15 -19 3 -10 15 -23 28 -29 18 -9 15 -10 -21 -5 l-42 6 0 -42 c0 -35 3 -42
18 -39 11 2 17 13 17 31 -1 21 4 27 22 27 32 0 93 -63 86 -90 -7 -26 -27 -21
-31 8 -3 17 -10 22 -32 22 -16 0 -32 -4 -35 -10 -9 -14 27 -59 47 -60 26 0 35
-66 14 -103 -9 -16 -16 -37 -16 -48 0 -20 -13 -24 -63 -20 l-27 2 0 -135 c0
-75 2 -136 5 -136 3 0 12 15 20 33 l14 32 1 -31 c0 -27 4 -32 30 -37 18 -4 30
-13 30 -22 0 -12 15 -15 88 -14 48 0 82 3 75 5 -7 3 14 30 48 63 32 32 59 66
59 76 0 24 21 97 33 113 5 7 11 27 13 45 12 134 26 262 36 317 13 80 13 80 4
107 -7 22 5 36 79 97 l30 25 -206 1 -206 0 -7 -31z"/>
<path d="M794 1832 c2 -4 -2 -43 -11 -87 -11 -59 -12 -85 -4 -97 16 -26 14
-34 -22 -86 -18 -26 -41 -64 -50 -84 -20 -42 -45 -226 -43 -311 2 -55 0 -59
-26 -73 -16 -8 -26 -19 -23 -25 4 -5 -1 -16 -9 -25 -19 -19 -21 -34 -3 -34 6
0 4 -5 -5 -11 -24 -13 -23 -29 2 -29 11 0 20 -7 20 -15 0 -8 -4 -15 -10 -15
-5 0 -10 -4 -10 -10 0 -5 7 -10 16 -10 12 0 14 -7 9 -31 -5 -22 -3 -34 6 -41
11 -7 11 -11 2 -15 -20 -8 -15 -22 6 -16 22 6 31 -6 22 -28 -4 -12 -12 -14
-28 -8 -19 7 -23 16 -23 54 0 32 -4 44 -11 39 -15 -9 -6 -80 21 -166 20 -64
60 -115 135 -172 11 -9 15 -16 8 -16 -19 0 -67 23 -81 40 -8 8 -11 9 -7 3 7
-15 -4 -17 -24 -4 -7 5 -10 14 -7 20 4 6 2 19 -4 28 -9 15 -10 15 -5 -5 6 -21
5 -23 -13 -13 -43 23 -74 108 -87 244 -4 37 -11 65 -16 62 -5 -4 -9 -1 -9 5 0
6 -7 18 -15 26 -13 14 -19 13 -49 -5 -18 -12 -41 -21 -50 -21 -27 0 -56 -37
-56 -73 0 -30 -32 -78 -44 -66 -2 2 -10 33 -18 69 l-14 65 -55 5 c-61 6 -45
20 22 20 43 0 52 14 16 24 -38 10 -187 7 -187 -4 0 -6 14 -13 30 -16 55 -12
33 -27 -30 -21 l-60 5 0 -215 c0 -201 1 -215 18 -208 9 4 31 12 47 17 17 6 53
21 80 34 54 26 118 44 150 43 l20 0 -20 -14 c-65 -46 -62 -39 -30 -81 16 -22
32 -41 36 -44 4 -3 24 -19 44 -35 35 -27 36 -29 16 -37 l-21 -7 22 -42 c23
-46 81 -80 101 -60 6 6 20 11 31 11 19 0 19 -2 -4 -15 -14 -8 -33 -17 -42 -21
-9 -3 -19 -13 -23 -22 -6 -15 -8 -15 -18 -2 -7 8 -30 16 -52 17 -22 1 -65 4
-95 7 -122 13 -157 14 -125 6 17 -5 62 -14 102 -20 45 -7 77 -18 88 -30 16
-18 16 -18 -4 -13 -14 3 -21 1 -21 -8 0 -9 -3 -10 -8 -3 -4 6 -17 16 -29 22
-17 10 -25 9 -37 -4 -9 -8 -16 -19 -16 -24 0 -25 -34 -40 -89 -40 -52 0 -59 3
-69 25 -7 15 -20 25 -32 25 -18 0 -20 -6 -20 -71 0 -96 3 -98 158 -99 l122 0
0 33 c0 31 14 57 32 57 4 0 14 -15 23 -34 13 -27 20 -32 41 -28 13 2 29 13 35
23 13 26 59 26 59 0 0 -24 18 -31 48 -18 29 13 28 25 -2 37 -35 13 -49 42 -32
65 12 17 18 17 72 6 59 -13 61 -12 154 24 100 40 119 43 163 26 38 -15 53 -52
40 -96 -13 -41 -10 -45 33 -45 26 0 36 6 46 27 10 21 22 29 47 31 44 4 88 -14
94 -40 5 -17 11 -19 39 -14 18 4 44 7 58 6 14 0 109 -1 213 -2 103 -1 187 -5
187 -10 0 -4 17 -8 39 -8 23 0 48 -8 63 -19 23 -19 42 -20 259 -20 164 1 224
4 202 10 -36 11 -44 29 -13 29 13 0 20 7 20 19 0 10 7 21 15 25 8 3 15 12 15
21 0 8 -7 15 -15 15 -9 0 -15 10 -15 26 0 37 -40 29 -60 -12 -19 -40 -63 -61
-93 -45 -12 6 -35 10 -52 9 -27 -3 -30 0 -40 42 -12 52 -34 90 -53 90 -7 0
-21 -6 -32 -12 -17 -11 -22 -10 -34 8 -12 17 -25 21 -65 20 -27 -1 -53 -4 -56
-8 -10 -9 -35 2 -35 16 0 13 -64 66 -79 66 -6 0 -15 8 -20 19 -6 11 -27 22
-48 25 -86 16 -96 29 -33 46 65 18 62 34 -6 28 -32 -4 -68 -3 -79 1 -19 8 -19
8 3 20 12 7 20 16 17 20 -2 5 12 20 33 35 42 28 69 61 97 116 10 19 21 37 24
40 13 9 30 85 37 158 l7 72 36 10 c41 11 80 48 104 99 29 58 30 93 7 165 -12
37 -20 70 -17 73 4 3 17 3 30 -1 19 -4 27 -17 38 -53 10 -36 14 -43 19 -28 3
11 12 34 21 50 32 59 48 185 28 221 -11 21 -52 40 -73 35 -5 -1 -6 8 -3 20 4
15 0 23 -14 26 -24 7 -25 23 -1 24 13 0 12 3 -6 11 -19 10 -25 8 -39 -11 -12
-18 -17 -20 -24 -10 -5 8 -9 24 -9 37 0 23 -14 30 -25 12 -9 -15 -35 7 -35 29
0 18 -18 41 -32 41 -4 0 -8 -4 -8 -9 0 -5 -5 -22 -10 -36 l-10 -27 -32 36
c-17 19 -35 33 -40 30 -4 -3 -8 -27 -8 -55 0 -42 -3 -49 -19 -49 -15 0 -24 13
-36 53 -17 52 -61 111 -76 101 -4 -2 -5 -28 -2 -57 l6 -52 -27 25 c-15 13 -25
29 -22 35 7 20 -20 45 -45 40 -19 -4 -59 -20 -78 -32 -2 -1 4 -9 12 -18 14
-13 14 -19 1 -43 -13 -25 -18 -27 -81 -28 -38 -1 -80 -2 -95 -3 -16 0 -28 -5
-28 -11 0 -15 -66 -12 -80 4 -6 8 -10 25 -8 38 2 18 11 24 38 28 27 4 34 9 32
24 -3 16 1 18 27 13 26 -5 31 -3 31 12 0 10 7 24 15 31 8 7 15 9 15 6 0 -4 7
-1 15 8 22 21 18 36 -9 36 -13 0 -29 7 -37 16 -8 10 -22 14 -40 10 -17 -3 -32
0 -39 9 -10 12 -8 19 11 35 l24 19 -123 1 c-68 0 -121 -4 -118 -8z m410 -357
c32 -34 135 -95 162 -95 23 0 51 -26 40 -37 -3 -4 -23 1 -43 11 -58 27 -114
44 -168 51 -27 3 -60 12 -72 20 -29 19 -57 19 -73 0 -11 -13 -10 -18 6 -30 10
-8 24 -15 29 -15 6 0 27 -9 48 -20 20 -11 50 -20 67 -20 16 0 30 -4 30 -10 0
-5 -11 -10 -24 -10 -33 0 -42 -16 -16 -30 11 -6 18 -15 15 -20 -3 -6 6 -15 20
-22 33 -15 15 -28 -41 -28 -42 0 -118 28 -166 61 -14 11 -34 19 -45 19 -42 1
-60 44 -38 93 9 21 95 67 127 68 13 0 43 8 68 19 25 10 46 18 48 19 2 1 13
-10 26 -24z m297 15 c14 0 26 -14 39 -45 20 -48 44 -58 55 -25 3 11 10 20 15
20 5 0 10 10 12 23 4 27 23 24 22 -3 0 -11 3 -20 8 -20 16 0 4 -85 -12 -86 -8
-1 -21 -2 -27 -3 -7 0 -13 -10 -13 -20 0 -17 -18 -31 -41 -31 -5 0 -9 8 -9 18
0 10 -9 29 -19 42 -68 88 -91 122 -85 131 3 6 13 8 21 5 8 -3 23 -6 34 -6z
m-143 -297 c-2 -10 -16 -24 -31 -31 -34 -17 -33 -51 1 -68 48 -24 47 -33 -2
-28 -27 2 -46 0 -46 -6 0 -5 5 -10 10 -10 6 0 10 -6 10 -13 0 -18 -58 -35
-143 -42 -87 -7 -81 10 6 19 75 8 104 22 66 31 -37 9 -111 10 -147 1 -28 -7
-31 -6 -26 8 4 9 19 20 35 23 43 8 26 21 -39 28 -31 3 -66 10 -77 15 -11 5
-42 8 -69 8 -26 0 -53 5 -58 10 -13 13 118 20 202 12 71 -7 107 -2 74 11 -10
4 -35 8 -54 9 -19 1 -57 8 -85 15 l-50 14 55 -4 c30 -1 87 -9 127 -15 44 -8
86 -9 110 -4 21 4 50 7 66 5 17 -1 29 3 33 13 8 22 36 20 32 -1z m-411 -208
c-21 -20 -37 -42 -37 -49 0 -26 75 -91 127 -109 48 -17 163 -21 178 -6 2 3 37
2 76 -2 43 -5 79 -4 90 2 20 10 96 2 105 -12 3 -5 2 -15 -3 -21 -13 -21 -33
-81 -33 -101 0 -10 -4 -16 -8 -13 -5 3 -16 -17 -26 -44 -22 -60 -41 -79 -64
-62 -50 35 -70 41 -103 32 -18 -5 -35 -13 -38 -18 -3 -4 -37 -23 -74 -41 -62
-30 -73 -32 -115 -24 -44 8 -47 10 -44 38 3 37 -26 105 -45 105 -7 0 -16 7
-19 15 -4 8 -11 15 -18 15 -16 0 -63 46 -80 79 -12 22 -13 37 -4 67 5 22 14
42 19 45 5 3 0 18 -12 33 -12 15 -21 38 -21 51 0 13 -5 23 -10 22 -6 -1 -13 4
-15 11 -7 18 11 15 37 -8 28 -24 39 -25 69 -3 27 18 94 43 100 37 2 -2 -12
-20 -32 -39z"/>
<path d="M1850 1830 c10 -7 12 -12 4 -17 -6 -5 -11 -27 -10 -50 l1 -42 31 20
c38 23 64 17 56 -13 -4 -18 -1 -20 32 -16 20 2 36 3 36 1 0 -1 -13 -9 -30 -18
-42 -22 -41 -55 3 -56 24 -1 26 -3 9 -6 -30 -6 -37 -26 -24 -71 6 -20 14 -72
18 -115 5 -62 8 -76 19 -67 9 8 14 7 18 -4 3 -8 0 -20 -8 -26 -10 -8 -14 -8
-18 2 -2 7 -4 -69 -3 -170 l1 -182 135 4 c145 5 189 15 197 46 4 16 9 18 24 9
18 -9 19 -5 19 70 0 70 -2 80 -19 86 -11 3 -26 17 -35 30 -9 14 -23 25 -32 25
-8 0 -13 4 -9 9 3 5 1 12 -5 16 -5 3 -10 0 -10 -7 0 -7 -6 -4 -12 6 -8 15 -8
21 1 24 9 3 7 11 -6 30 -15 23 -18 52 -19 193 -1 100 -6 181 -14 203 -13 41
-7 58 13 35 6 -8 33 -31 59 -50 25 -19 56 -50 67 -69 l21 -35 0 108 0 107
-262 0 c-176 0 -258 -4 -248 -10z"/>
<path d="M1979 885 c-1 0 -3 -40 -4 -89 l-4 -88 37 -37 c20 -21 66 -52 102
-71 36 -18 80 -43 98 -57 17 -13 32 -22 32 -19 0 3 21 -4 46 -14 78 -34 74
-44 74 180 l0 200 -190 -3 c-104 -1 -190 -2 -191 -2z"/>
</g>
</svg>
