<?xml version="1.0" standalone="no"?>
<!DOCTYPE svg PUBLIC "-//W3C//DTD SVG 20010904//EN"
 "http://www.w3.org/TR/2001/REC-SVG-20010904/DTD/svg10.dtd">
<svg version="1.0" xmlns="http://www.w3.org/2000/svg"
 width="360.000000pt" height="360.000000pt" viewBox="0 0 360.000000 360.000000"
 preserveAspectRatio="xMidYMid meet">

<g transform="translate(0.000000,360.000000) scale(0.100000,-0.100000)"
fill="#000000" stroke="none">
<path d="M2173 2915 c-17 -7 -59 -47 -94 -89 -60 -73 -63 -76 -105 -76 -67 0
-144 -19 -206 -52 l-57 -30 -40 31 c-53 42 -167 101 -195 101 -34 0 -65 -27
-72 -65 -7 -39 5 -98 48 -234 36 -114 35 -119 -60 -195 -72 -57 -121 -111
-161 -179 -13 -21 -47 -53 -76 -71 -61 -39 -94 -80 -129 -157 -67 -145 -74
-377 -18 -584 83 -309 81 -305 159 -347 60 -33 118 -49 208 -57 l70 -6 0 -103
c0 -91 2 -105 20 -118 30 -22 84 -34 158 -34 120 0 149 32 122 136 -8 32 -12
61 -7 65 4 4 34 1 67 -6 68 -17 230 -19 290 -5 22 5 41 7 43 5 2 -2 -4 -17
-12 -34 -30 -56 -17 -110 32 -135 62 -32 174 -28 210 8 9 8 16 37 18 69 4 77
45 232 120 453 41 123 70 229 80 295 22 144 22 416 0 533 -38 200 -117 386
-201 476 -77 83 -81 93 -94 224 -11 115 -30 186 -50 186 -5 0 -15 2 -23 5 -7
2 -27 -2 -45 -10z m78 -42 c5 -15 15 -76 20 -137 10 -100 15 -120 55 -201 83
-169 79 -324 -9 -449 -40 -55 -182 -169 -234 -187 -21 -8 -70 -13 -109 -13
-60 1 -85 7 -150 37 -44 19 -100 42 -125 51 -102 36 -178 122 -200 224 -6 31
-9 95 -7 142 5 73 1 98 -23 177 -15 51 -34 119 -40 152 -11 52 -11 62 4 85 10
14 26 26 36 26 25 0 134 -56 156 -80 28 -31 13 -33 -36 -5 -53 30 -80 31 -104
5 -14 -15 -16 -29 -12 -62 8 -57 36 -148 45 -148 4 0 13 14 19 30 6 17 19 30
27 30 9 0 31 16 48 36 26 29 33 33 40 20 10 -17 -10 -67 -43 -107 -18 -22 -19
-30 -9 -48 11 -21 13 -21 35 -7 14 9 31 16 39 16 9 0 23 12 33 28 9 15 18 28
19 30 1 2 12 -3 24 -10 18 -11 22 -11 31 4 5 9 17 14 28 11 12 -3 25 4 36 19
9 12 19 19 21 13 13 -30 22 -37 40 -27 51 26 153 36 183 18 11 -7 81 19 81 30
0 6 -32 46 -78 99 -61 69 -61 57 3 135 65 79 78 89 118 90 21 0 30 -6 38 -27z
m-243 -151 c18 -12 4 -41 -22 -46 -36 -8 -100 -17 -131 -21 -16 -1 -51 -6 -77
-10 -66 -11 -61 6 10 38 91 41 189 58 220 39z m-421 -47 c23 -14 43 -28 43
-31 0 -12 -56 -74 -67 -74 -6 0 -19 -10 -27 -22 -19 -26 -20 -25 -35 34 -12
52 -14 101 -4 111 13 14 47 6 90 -18z m865 -300 c75 -147 114 -293 128 -476
16 -211 -14 -488 -60 -546 -11 -14 -20 -39 -20 -56 0 -17 -21 -66 -52 -120
-53 -91 -53 -92 -54 -182 -1 -49 -9 -121 -18 -159 -9 -38 -15 -75 -12 -83 6
-16 -10 -53 -28 -65 -6 -4 -40 -8 -76 -8 -82 0 -130 25 -130 68 0 15 7 37 15
48 10 14 14 47 15 123 0 114 -12 128 -20 23 l-5 -67 -50 -13 c-73 -19 -250
-10 -309 17 l-45 20 -3 88 -3 88 -19 -40 c-31 -65 -32 -131 -3 -206 38 -98 39
-104 19 -129 -13 -16 -32 -24 -68 -27 -61 -6 -158 12 -175 33 -8 10 -13 67
-14 182 -3 171 -21 320 -51 408 -9 27 -41 101 -71 164 -61 130 -75 198 -62
304 9 67 6 87 -8 73 -12 -12 -19 -161 -11 -217 5 -31 33 -107 64 -172 30 -65
61 -135 69 -157 13 -39 38 -191 50 -305 l6 -59 -73 6 c-162 13 -264 69 -289
159 -6 24 -22 79 -35 123 -25 87 -64 267 -63 294 0 13 2 13 12 -3 7 -11 38
-48 70 -83 31 -34 57 -68 57 -75 0 -30 39 -79 96 -122 97 -72 113 -57 40 38
-31 40 -47 71 -52 102 -3 24 -23 72 -44 107 -56 93 -65 128 -65 257 0 97 4
125 24 178 13 34 28 65 34 69 7 4 8 -1 3 -13 -42 -108 -52 -272 -22 -361 30
-91 43 -69 49 85 6 148 32 284 67 352 12 23 23 40 25 38 2 -2 -3 -30 -10 -63
-14 -57 -9 -85 13 -71 5 3 13 25 16 49 4 23 22 72 41 107 19 36 53 101 76 145
l42 80 13 -87 c15 -98 36 -146 89 -201 35 -36 103 -76 155 -92 14 -4 59 -24
100 -44 68 -33 83 -36 160 -36 101 0 142 16 240 94 81 65 103 91 143 166 30
57 32 65 32 175 0 63 -4 131 -8 150 l-8 35 22 -25 c11 -14 35 -52 51 -85z"/>
<path d="M2124 2813 c-20 -21 -42 -50 -50 -65 -14 -27 -14 -27 27 -38 22 -6
48 -10 57 -9 25 4 59 -10 66 -26 3 -8 11 -15 17 -15 17 0 4 136 -16 166 -23
35 -58 31 -101 -13z m95 -14 c6 -18 11 -47 11 -66 0 -30 -2 -33 -20 -23 -11 6
-32 10 -47 8 -32 -2 -73 10 -73 21 0 4 16 26 36 49 45 53 77 56 93 11z"/>
<path d="M2056 2397 c-27 -27 -41 -89 -27 -115 7 -11 10 -13 11 -3 0 9 4 10
13 3 12 -10 38 -15 70 -13 50 3 83 82 57 132 -16 29 -93 27 -124 -4z m119 -24
c14 -57 -61 -111 -109 -79 -32 20 -35 56 -5 56 15 0 19 -5 15 -15 -3 -9 3 -19
14 -25 39 -21 80 24 65 70 -3 11 -2 20 3 20 6 0 13 -12 17 -27z"/>
<path d="M1704 2347 c-22 -19 -26 -29 -20 -51 17 -69 95 -98 148 -56 14 10 28
16 32 13 11 -11 7 16 -8 51 -28 66 -101 87 -152 43z m18 -44 c4 -34 43 -57 71
-42 11 6 16 17 13 26 -3 8 1 21 9 29 13 13 15 12 21 -11 15 -58 -70 -91 -116
-45 -20 20 -28 70 -11 70 5 0 11 -12 13 -27z"/>
<path d="M2041 2130 c-2 -22 -48 -70 -66 -70 -22 0 -75 41 -75 57 0 8 -4 11
-10 8 -19 -11 -10 -24 40 -62 28 -20 50 -43 50 -51 0 -7 -14 -21 -30 -30 -33
-19 -36 -49 -5 -44 11 2 47 6 80 10 72 8 81 29 20 46 -49 14 -54 34 -20 74 17
20 25 40 22 54 -2 13 -5 16 -6 8z"/>
<path d="M2316 1796 c-29 -61 -47 -84 -90 -116 -30 -23 -57 -48 -60 -56 -3 -7
-14 -14 -24 -14 -10 0 -43 -13 -73 -30 -30 -16 -64 -30 -76 -30 -26 0 -159 47
-191 68 -12 8 -25 12 -28 9 -18 -17 154 -87 215 -87 21 0 60 11 87 25 27 14
55 25 62 25 7 0 23 10 35 23 12 12 41 38 65 56 47 37 79 81 106 150 28 72 11
58 -28 -23z"/>
</g>
</svg>
